<svg width="318" height="160" viewBox="0 0 318 160" fill="none" xmlns="http://www.w3.org/2000/svg">
<path fill-rule="evenodd" clip-rule="evenodd" d="M182.976 43.5996C182.992 43.2342 183 42.8676 183 42.5C183 19.0279 150.541 0 110.5 0C70.4594 0 38 19.0279 38 42.5C38 46.9174 39.1496 51.1773 41.2831 55.1826C16.6409 64.7859 0 83.0494 0 104C0 134.928 36.2649 160 81 160C108.445 160 132.702 150.563 147.352 136.127C165.401 142.291 188.64 146 214 146C271.438 146 318 126.972 318 103.5C318 80.0279 271.438 61 214 61C211.625 61 209.269 61.0325 206.934 61.0965C201.428 53.391 193.039 47.2295 182.976 43.5996Z" fill="white"/>
</svg>
