<?xml version="1.0" encoding="UTF-8"?> <svg xmlns="http://www.w3.org/2000/svg" width="24" height="14" viewBox="0 0 24 14" fill="none"> <path fill-rule="evenodd" clip-rule="evenodd" d="M0 1.5C0 1.08579 0.335786 0.75 0.75 0.75H22.75C23.1642 0.75 23.5 1.08579 23.5 1.5C23.5 1.91421 23.1642 2.25 22.75 2.25H0.75C0.335786 2.25 0 1.91421 0 1.5Z" fill="black"></path> <path fill-rule="evenodd" clip-rule="evenodd" d="M0 7C0 6.58579 0.335786 6.25 0.75 6.25H22.75C23.1642 6.25 23.5 6.58579 23.5 7C23.5 7.41421 23.1642 7.75 22.75 7.75H0.75C0.335786 7.75 0 7.41421 0 7Z" fill="black"></path> <path fill-rule="evenodd" clip-rule="evenodd" d="M0 12.5C0 12.0858 0.335786 11.75 0.75 11.75H22.75C23.1642 11.75 23.5 12.0858 23.5 12.5C23.5 12.9142 23.1642 13.25 22.75 13.25H0.75C0.335786 13.25 0 12.9142 0 12.5Z" fill="black"></path> </svg> 