<svg width="523" height="122" viewBox="0 0 523 122" fill="none" xmlns="http://www.w3.org/2000/svg">
<path d="M495.441 34.5938C495.441 35.1016 495.253 35.5443 494.875 35.9219C494.51 36.2865 494.113 36.4688 493.684 36.4688C493.319 36.4688 493 36.3385 492.727 36.0781C492.453 35.8307 492.264 35.6419 492.16 35.5117C490.975 34.6784 489.947 33.7344 489.074 32.6797C488.215 31.612 487.479 30.4531 486.867 29.2031C486.333 28.0833 485.786 27.2109 485.227 26.5859C484.68 25.9609 484.016 25.5182 483.234 25.2578C482.453 24.9974 481.438 24.8607 480.188 24.8477L478.41 24.8281L478.43 34.2812V34.3203C478.43 34.8411 478.234 35.2969 477.844 35.6875C477.466 36.0781 477.01 36.2734 476.477 36.2734C475.943 36.2734 475.48 36.0651 475.09 35.6484C474.712 35.2318 474.523 34.737 474.523 34.1641L474.465 9.92578C474.465 9.37891 474.654 8.92318 475.031 8.55859C475.422 8.18099 475.878 7.98568 476.398 7.97266L481.594 7.95312H482.043C484.283 7.95312 486.281 8.28516 488.039 8.94922C489.797 9.60026 491.184 10.5833 492.199 11.8984C493.215 13.2005 493.723 14.8216 493.723 16.7617C493.723 18.0117 493.462 19.125 492.941 20.1016C492.434 21.0781 491.763 21.9049 490.93 22.582C490.096 23.2591 489.198 23.7865 488.234 24.1641C488.677 24.724 489.12 25.4141 489.562 26.2344C490.318 27.6797 491.053 28.9622 491.77 30.082C492.486 31.1888 493.43 32.1654 494.602 33.0117C494.836 33.168 495.031 33.3893 495.188 33.6758C495.357 33.9492 495.441 34.2552 495.441 34.5938ZM482.141 11.8594H478.371L478.41 21.1953L482.18 21.1562C484.576 21.1302 486.451 20.7656 487.805 20.0625C489.172 19.3594 489.855 18.2331 489.855 16.6836C489.855 15.0951 489.133 13.8971 487.688 13.0898C486.242 12.2695 484.393 11.8594 482.141 11.8594ZM497.98 9.90625C497.98 9.41146 498.163 8.96875 498.527 8.57812C498.905 8.1875 499.341 7.99219 499.836 7.99219C500.448 7.99219 500.936 8.16146 501.301 8.5C501.678 8.82552 501.874 9.29427 501.887 9.90625L502.023 24.0273C502.049 26.8398 502.616 29.0599 503.723 30.6875C504.829 32.3151 506.665 33.1289 509.23 33.1289C511.132 33.1289 512.655 32.7578 513.801 32.0156C514.947 31.2734 515.773 30.2383 516.281 28.9102C516.789 27.582 517.043 26.0521 517.043 24.3203L517.004 9.88672V9.86719C517.004 9.33333 517.193 8.88411 517.57 8.51953C517.948 8.14193 518.404 7.95312 518.938 7.95312C519.471 7.95312 519.934 8.14193 520.324 8.51953C520.715 8.88411 520.91 9.33333 520.91 9.86719V9.88672L520.949 24.3203C520.949 28.2266 519.979 31.319 518.039 33.5977C516.112 35.8763 513.202 37.0156 509.309 37.0156C506.796 37.0156 504.719 36.4622 503.078 35.3555C501.438 34.2357 500.207 32.7057 499.387 30.7656C498.566 28.8125 498.143 26.5859 498.117 24.0859L497.98 9.92578V9.90625Z" fill="#222222"/>
<path d="M1.46484 30.0117C1.46484 28.4102 2.03125 27.043 3.16406 25.9102C4.33594 24.7383 5.72266 24.1523 7.32422 24.1523H7.38281L65.918 23.8008H66.0352C67.6367 23.8008 69.0039 24.3867 70.1367 25.5586C71.3086 26.6914 71.8945 28.0586 71.8945 29.6602C71.8945 31.2617 71.3086 32.6484 70.1367 33.8203C69.0039 34.9531 67.6367 35.5195 66.0352 35.5195H65.9766L42.6562 35.6367L42.3633 102.902V102.961C42.3633 104.523 41.7773 105.871 40.6055 107.004C39.4727 108.137 38.1055 108.703 36.5039 108.703C34.9023 108.703 33.5156 108.137 32.3438 107.004C31.2109 105.871 30.6445 104.523 30.6445 102.961V102.844L30.9375 35.6953L7.38281 35.8711H7.32422C5.72266 35.8711 4.33594 35.3047 3.16406 34.1719C2.03125 33 1.46484 31.6133 1.46484 30.0117ZM105.469 43.8398C109.961 43.8398 114.141 44.6992 118.008 46.418C121.914 48.1367 125.332 50.5195 128.262 53.5664C131.191 56.6133 133.477 60.1094 135.117 64.0547C136.797 68 137.637 72.1992 137.637 76.6523C137.637 81.0273 136.797 85.1875 135.117 89.1328C133.438 93.0391 131.113 96.4961 128.145 99.5039C125.215 102.473 121.797 104.816 117.891 106.535C114.023 108.254 109.883 109.113 105.469 109.113C101.094 109.113 96.9531 108.273 93.0469 106.594C89.1797 104.914 85.7617 102.59 82.793 99.6211C79.8633 96.6523 77.5586 93.2148 75.8789 89.3086C74.1992 85.3633 73.3594 81.1445 73.3594 76.6523C73.3594 72.1992 74.1992 68 75.8789 64.0547C77.5586 60.1094 79.8633 56.6328 82.793 53.625C85.7617 50.5781 89.1797 48.1953 93.0469 46.4766C96.9141 44.7188 101.055 43.8398 105.469 43.8398ZM85.1953 76.7695C85.1953 80.5586 86.1133 84.0156 87.9492 87.1406C89.8242 90.2266 92.3047 92.6875 95.3906 94.5234C98.4766 96.3594 101.855 97.2773 105.527 97.2773C109.277 97.2773 112.676 96.3398 115.723 94.4648C118.809 92.5508 121.25 90.0312 123.047 86.9062C124.883 83.7812 125.801 80.3633 125.801 76.6523C125.801 72.8633 124.902 69.3867 123.105 66.2227C121.309 63.0195 118.867 60.4609 115.781 58.5469C112.734 56.6328 109.297 55.6758 105.469 55.6758C101.602 55.6758 98.1445 56.6523 95.0977 58.6055C92.0508 60.5195 89.6289 63.0781 87.832 66.2812C86.0742 69.4453 85.1953 72.9414 85.1953 76.7695ZM186.914 100.09C184.805 102.121 182.285 104.172 179.355 106.242C176.426 108.273 172.988 109.289 169.043 109.289C163.926 109.289 159.668 107.941 156.27 105.246C152.871 102.512 150.371 99.3477 148.77 95.7539C147.52 92.9023 146.758 90.0898 146.484 87.3164C146.25 84.5039 146.133 81.8672 146.133 79.4062V49.8164C146.133 48.2148 146.699 46.8477 147.832 45.7148C149.004 44.543 150.391 43.957 151.992 43.957C153.594 43.957 154.961 44.543 156.094 45.7148C157.266 46.8477 157.852 48.2148 157.852 49.8164V79.4062C157.852 81.6719 157.949 83.8008 158.145 85.793C158.379 87.7461 158.828 89.4648 159.492 90.9492C160.273 92.668 161.445 94.2109 163.008 95.5781C164.57 96.9062 166.543 97.5703 168.926 97.5703C174.707 97.5703 179.141 95.3633 182.227 90.9492C185.352 86.5352 186.895 80.5781 186.855 73.0781L186.797 49.6992C186.797 48.0977 187.363 46.7305 188.496 45.5977C189.668 44.4258 191.055 43.8398 192.656 43.8398C194.297 43.8398 195.684 44.4258 196.816 45.5977C197.949 46.7305 198.516 48.1172 198.516 49.7578L198.633 103.605C198.633 105.207 198.184 106.594 197.285 107.766C196.426 108.898 195.195 109.465 193.594 109.465C191.992 109.465 190.762 108.898 189.902 107.766C189.043 106.594 188.379 105.207 187.91 103.605L186.914 100.09ZM248.848 51.2227C248.848 54.3477 247.344 56.0859 244.336 56.4375C243.242 56.5547 241.855 56.2031 240.176 55.3828C238.496 54.5234 236.797 54.0938 235.078 54.0938C231.68 54.0938 228.984 54.9727 226.992 56.7305C225 58.4492 223.574 60.7734 222.715 63.7031C221.855 66.6328 221.426 69.9141 221.426 73.5469V103.781C221.426 105.5 220.898 106.867 219.844 107.883C218.828 108.898 217.402 109.406 215.566 109.406C213.77 109.406 212.344 108.898 211.289 107.883C210.234 106.867 209.707 105.48 209.707 103.723V49.7578C209.707 48 210.137 46.5547 210.996 45.4219C211.895 44.2891 213.105 43.7227 214.629 43.7227C215.527 43.7227 216.562 44.1133 217.734 44.8945C218.945 45.6367 219.785 46.9258 220.254 48.7617L220.84 52.9805C221.348 51.8867 222.324 50.6172 223.77 49.1719C225.215 47.7266 226.934 46.4766 228.926 45.4219C230.918 44.3281 232.988 43.7812 235.137 43.7812C239.121 43.7812 242.402 44.25 244.98 45.1875C247.559 46.0859 248.848 48.0977 248.848 51.2227Z" fill="#222222"/>
<path d="M264.961 33.3516C264.961 31.75 265.527 30.3828 266.66 29.25C267.793 28.0781 269.18 27.4922 270.82 27.4922C272.422 27.4922 273.789 28.0781 274.922 29.25C276.094 30.3828 276.68 31.75 276.68 33.3516V45.0117H284.531C286.055 45.0117 287.363 45.5586 288.457 46.6523C289.551 47.7461 290.098 49.0547 290.098 50.5781C290.098 52.1016 289.551 53.4102 288.457 54.5039C287.363 55.5977 286.055 56.1445 284.531 56.1445H276.621L276.562 92.4141V92.5312C276.562 94.4453 276.777 95.7734 277.207 96.5156C277.637 97.2188 278.516 97.5703 279.844 97.5703C281.523 97.5703 283.008 97.1211 284.297 96.2227C284.766 95.9102 285.332 95.6367 285.996 95.4023C286.66 95.1289 287.305 94.9922 287.93 94.9922C289.531 94.9922 290.898 95.5586 292.031 96.6914C293.203 97.8242 293.789 99.1914 293.789 100.793C293.789 102.707 293.008 104.25 291.445 105.422C289.961 106.555 288.262 107.492 286.348 108.234C284.434 108.977 282.383 109.348 280.195 109.348C275.273 109.348 271.484 107.844 268.828 104.836C266.172 101.789 264.844 98 264.844 93.4688V92.9414L264.902 56.2031H257.344C255.82 56.2031 254.512 55.6562 253.418 54.5625C252.324 53.4688 251.777 52.1602 251.777 50.6367C251.777 49.1133 252.324 47.8047 253.418 46.7109C254.512 45.6172 255.82 45.0703 257.344 45.0703H264.961V33.3516ZM339.902 51.2227C339.902 54.3477 338.398 56.0859 335.391 56.4375C334.297 56.5547 332.91 56.2031 331.23 55.3828C329.551 54.5234 327.852 54.0938 326.133 54.0938C322.734 54.0938 320.039 54.9727 318.047 56.7305C316.055 58.4492 314.629 60.7734 313.77 63.7031C312.91 66.6328 312.48 69.9141 312.48 73.5469V103.781C312.48 105.5 311.953 106.867 310.898 107.883C309.883 108.898 308.457 109.406 306.621 109.406C304.824 109.406 303.398 108.898 302.344 107.883C301.289 106.867 300.762 105.48 300.762 103.723V49.7578C300.762 48 301.191 46.5547 302.051 45.4219C302.949 44.2891 304.16 43.7227 305.684 43.7227C306.582 43.7227 307.617 44.1133 308.789 44.8945C310 45.6367 310.84 46.9258 311.309 48.7617L311.895 52.9805C312.402 51.8867 313.379 50.6172 314.824 49.1719C316.27 47.7266 317.988 46.4766 319.98 45.4219C321.973 44.3281 324.043 43.7812 326.191 43.7812C330.176 43.7812 333.457 44.25 336.035 45.1875C338.613 46.0859 339.902 48.0977 339.902 51.2227ZM372.539 44.0156C377.734 44.0156 382.5 45.3047 386.836 47.8828C391.172 50.4609 394.648 53.9375 397.266 58.3125C399.922 62.6484 401.25 67.4727 401.25 72.7852C401.25 73.8789 401.191 74.9922 401.074 76.125C400.918 77.5703 400.254 78.8008 399.082 79.8164C397.949 80.793 396.66 81.2812 395.215 81.2812L354.258 81.3398C354.922 84.1523 356.172 86.7891 358.008 89.25C359.844 91.7109 362.07 93.7031 364.688 95.2266C367.344 96.75 370.234 97.5117 373.359 97.5117C376.719 97.5117 379.727 96.6914 382.383 95.0508C385.039 93.4102 387.109 91.5156 388.594 89.3672C389.062 88.625 389.766 88 390.703 87.4922C391.68 86.9844 392.598 86.7305 393.457 86.7305C395.059 86.7305 396.426 87.3164 397.559 88.4883C398.73 89.6602 399.316 91.0469 399.316 92.6484C399.316 93.8984 398.965 95.0117 398.262 95.9883C395.84 99.543 392.5 102.629 388.242 105.246C384.023 107.824 379.121 109.113 373.535 109.113C369.043 109.113 364.863 108.234 360.996 106.477C357.168 104.719 353.828 102.316 350.977 99.2695C348.125 96.2227 345.898 92.7266 344.297 88.7812C342.734 84.7969 341.953 80.5977 341.953 76.1836C341.953 71.9258 342.734 67.8828 344.297 64.0547C345.859 60.1875 348.027 56.75 350.801 53.7422C353.613 50.7344 356.875 48.3711 360.586 46.6523C364.297 44.8945 368.281 44.0156 372.539 44.0156ZM389.18 69.5625C388.438 65.7344 386.523 62.4727 383.438 59.7773C380.352 57.082 376.719 55.7344 372.539 55.7344C368.281 55.7344 364.512 57.1211 361.23 59.8945C357.988 62.668 355.801 65.9102 354.668 69.6211L389.18 69.5625ZM410.332 28.4297C410.332 26.8281 410.898 25.4609 412.031 24.3281C413.203 23.1562 414.59 22.5703 416.191 22.5703C417.793 22.5703 419.16 23.1562 420.293 24.3281C421.465 25.4609 422.051 26.8281 422.051 28.4297V70.3242L445.781 45.6562C446.875 44.4063 448.301 43.7812 450.059 43.7812C451.66 43.7812 453.027 44.3672 454.16 45.5391C455.332 46.6719 455.918 48.0391 455.918 49.6406C455.918 51.2812 455.352 52.668 454.219 53.8008L435.234 73.5469L455.215 99.7969C456.035 100.812 456.445 102.023 456.445 103.43C456.445 105.031 455.859 106.418 454.688 107.59C453.555 108.723 452.188 109.289 450.586 109.289C449.766 109.289 448.906 109.035 448.008 108.527C447.109 108.059 446.406 107.512 445.898 106.887L427.031 82.043L422.051 87.1992V103.254C422.051 104.855 421.465 106.242 420.293 107.414C419.16 108.547 417.793 109.113 416.191 109.113C414.59 109.113 413.203 108.547 412.031 107.414C410.898 106.242 410.332 104.855 410.332 103.254V28.4297Z" fill="#3262E0"/>
</svg>
