<svg width="28" height="28" viewBox="0 0 28 28" fill="none" xmlns="http://www.w3.org/2000/svg">
<g clip-path="url(#clip0_672_3)">
<path d="M1.65522 25.781C1.35352 25.4793 1.20267 25.1474 1.20267 24.7854C1.20267 24.4233 1.35352 24.0915 1.65522 23.7898L11.566 13.879L1.74573 4.05865C1.44403 3.75696 1.29318 3.42509 1.29318 3.06305C1.29318 2.70101 1.44403 2.36914 1.74573 2.06744L2.37929 1.43388C2.68099 1.13218 3.01286 0.981326 3.3749 0.981327C3.73694 0.981327 4.06881 1.13218 4.37051 1.43387L14.1908 11.2542L23.8301 1.61489C24.1318 1.3132 24.4637 1.16235 24.8257 1.16235C25.1877 1.16235 25.5196 1.31319 25.8213 1.61489L26.5001 2.29372C26.8018 2.59542 26.9527 2.92728 26.9527 3.28932C26.9527 3.65136 26.8018 3.98323 26.5001 4.28493L16.8608 13.9242L26.7264 23.7898C27.0281 24.0915 27.1789 24.4233 27.1789 24.7854C27.1789 25.1474 27.0281 25.4793 26.7264 25.781L26.0928 26.4145C25.7911 26.7162 25.4593 26.8671 25.0972 26.8671C24.7352 26.8671 24.4033 26.7162 24.1016 26.4145L14.2361 16.549L4.32525 26.4598C4.02355 26.7615 3.69169 26.9123 3.32965 26.9123C2.96761 26.9123 2.63574 26.7615 2.33404 26.4598L1.65522 25.781Z" fill="#222222"/>
</g>
<defs>
<clipPath id="clip0_672_3">
<rect width="28" height="28" fill="white"/>
</clipPath>
</defs>
</svg>
